<svg xmlns="http://www.w3.org/2000/svg" width="288.7" height="35" viewBox="0 0 288.7 35"><rect class="svg__rect" x="0" y="0" width="127.25" height="35" fill="#C13B3A"/><rect class="svg__rect" x="125.25" y="0" width="163.45" height="35" fill="#FFFFFF"/><path class="svg__text" d="M15.70 22L14.22 22L14.22 13.47L17.48 13.47Q18.91 13.47 19.75 14.21Q20.59 14.96 20.59 16.18L20.59 16.18Q20.59 17.44 19.77 18.13Q18.95 18.83 17.46 18.83L17.46 18.83L15.70 18.83L15.70 22ZM15.70 14.66L15.70 17.64L17.48 17.64Q18.27 17.64 18.69 17.27Q19.10 16.90 19.10 16.19L19.10 16.19Q19.10 15.50 18.68 15.09Q18.26 14.68 17.52 14.66L17.52 14.66L15.70 14.66ZM24.61 18.00L24.61 18.00L24.61 17.52Q24.61 16.28 25.05 15.32Q25.49 14.37 26.30 13.86Q27.10 13.35 28.14 13.35Q29.19 13.35 29.99 13.85Q30.80 14.35 31.24 15.29Q31.68 16.23 31.68 17.48L31.68 17.48L31.68 17.96Q31.68 19.21 31.25 20.16Q30.82 21.10 30.01 21.61Q29.21 22.12 28.16 22.12L28.16 22.12Q27.12 22.12 26.31 21.61Q25.50 21.10 25.05 20.17Q24.61 19.23 24.61 18.00ZM26.09 17.46L26.09 17.96Q26.09 19.36 26.64 20.13Q27.18 20.90 28.16 20.90L28.16 20.90Q29.14 20.90 29.67 20.15Q30.20 19.40 30.20 17.96L30.20 17.96L30.20 17.51Q30.20 16.09 29.67 15.34Q29.13 14.58 28.14 14.58L28.14 14.58Q27.18 14.58 26.64 15.33Q26.10 16.09 26.09 17.46L26.09 17.46ZM37.53 22L35.56 13.47L37.03 13.47L38.36 19.88L39.99 13.47L41.23 13.47L42.84 19.89L44.15 13.47L45.62 13.47L43.65 22L42.24 22L40.61 15.77L38.96 22L37.53 22ZM55.27 22L49.70 22L49.70 13.47L55.23 13.47L55.23 14.66L51.18 14.66L51.18 17.02L54.68 17.02L54.68 18.19L51.18 18.19L51.18 20.82L55.27 20.82L55.27 22ZM60.95 22L59.47 22L59.47 13.47L62.47 13.47Q63.95 13.47 64.75 14.13Q65.55 14.79 65.55 16.05L65.55 16.05Q65.55 16.90 65.14 17.48Q64.72 18.06 63.99 18.37L63.99 18.37L65.90 21.92L65.90 22L64.31 22L62.60 18.71L60.95 18.71L60.95 22ZM60.95 14.66L60.95 17.52L62.48 17.52Q63.23 17.52 63.65 17.15Q64.07 16.77 64.07 16.11L64.07 16.11Q64.07 15.43 63.68 15.05Q63.29 14.68 62.52 14.66L62.52 14.66L60.95 14.66ZM75.52 22L69.95 22L69.95 13.47L75.48 13.47L75.48 14.66L71.43 14.66L71.43 17.02L74.93 17.02L74.93 18.19L71.43 18.19L71.43 20.82L75.52 20.82L75.52 22ZM82.17 22L79.72 22L79.72 13.47L82.24 13.47Q83.37 13.47 84.25 13.97Q85.12 14.48 85.60 15.40Q86.08 16.33 86.08 17.52L86.08 17.52L86.08 17.95Q86.08 19.16 85.60 20.08Q85.12 21.00 84.22 21.50Q83.33 22 82.17 22L82.17 22ZM81.20 14.66L81.20 20.82L82.17 20.82Q83.33 20.82 83.96 20.09Q84.58 19.36 84.59 17.99L84.59 17.99L84.59 17.52Q84.59 16.13 83.99 15.40Q83.39 14.66 82.24 14.66L82.24 14.66L81.20 14.66ZM99.64 22L96.52 22L96.52 13.47L99.45 13.47Q100.89 13.47 101.65 14.05Q102.41 14.63 102.41 15.78L102.41 15.78Q102.41 16.36 102.09 16.83Q101.77 17.30 101.16 17.56L101.16 17.56Q101.86 17.75 102.23 18.26Q102.61 18.78 102.61 19.51L102.61 19.51Q102.61 20.71 101.84 21.36Q101.07 22 99.64 22L99.64 22ZM98.01 18.15L98.01 20.82L99.65 20.82Q100.35 20.82 100.74 20.47Q101.14 20.13 101.14 19.51L101.14 19.51Q101.14 18.18 99.78 18.15L99.78 18.15L98.01 18.15ZM98.01 14.66L98.01 17.06L99.46 17.06Q100.15 17.06 100.54 16.75Q100.93 16.43 100.93 15.86L100.93 15.86Q100.93 15.23 100.57 14.95Q100.21 14.66 99.45 14.66L99.45 14.66L98.01 14.66ZM109.12 18.86L106.26 13.47L107.90 13.47L109.87 17.51L111.83 13.47L113.47 13.47L110.61 18.86L110.61 22L109.12 22L109.12 18.86Z" fill="#FFFFFF"/><path class="svg__text" d="M139.01 17.80L139.01 17.80Q139.01 16.54 139.61 15.54Q140.21 14.55 141.26 13.99Q142.31 13.43 143.63 13.43L143.63 13.43Q144.78 13.43 145.70 13.84Q146.63 14.25 147.24 15.02L147.24 15.02L145.73 16.39Q144.92 15.40 143.75 15.40L143.75 15.40Q143.06 15.40 142.53 15.70Q142.00 16 141.70 16.54Q141.41 17.09 141.41 17.80L141.41 17.80Q141.41 18.51 141.70 19.05Q142.00 19.60 142.53 19.90Q143.06 20.20 143.75 20.20L143.75 20.20Q144.92 20.20 145.73 19.22L145.73 19.22L147.24 20.58Q146.63 21.35 145.71 21.76Q144.78 22.17 143.63 22.17L143.63 22.17Q142.31 22.17 141.26 21.61Q140.21 21.05 139.61 20.05Q139.01 19.06 139.01 17.80ZM158.16 22L151.78 22L151.78 13.60L154.16 13.60L154.16 20.11L158.16 20.11L158.16 22ZM162.15 17.80L162.15 17.80Q162.15 16.55 162.76 15.55Q163.36 14.56 164.43 14.00Q165.49 13.43 166.82 13.43L166.82 13.43Q168.15 13.43 169.21 14.00Q170.28 14.56 170.88 15.55Q171.49 16.55 171.49 17.80L171.49 17.80Q171.49 19.05 170.88 20.04Q170.28 21.04 169.22 21.60Q168.15 22.17 166.82 22.17L166.82 22.17Q165.49 22.17 164.43 21.60Q163.36 21.04 162.76 20.04Q162.15 19.05 162.15 17.80ZM164.55 17.80L164.55 17.80Q164.55 18.51 164.85 19.05Q165.15 19.60 165.67 19.90Q166.19 20.20 166.82 20.20L166.82 20.20Q167.46 20.20 167.97 19.90Q168.49 19.60 168.79 19.05Q169.09 18.51 169.09 17.80L169.09 17.80Q169.09 17.09 168.79 16.54Q168.49 16 167.97 15.70Q167.46 15.40 166.82 15.40L166.82 15.40Q166.18 15.40 165.67 15.70Q165.15 16 164.85 16.54Q164.55 17.09 164.55 17.80ZM178.30 22L175.57 13.60L178.02 13.60L179.71 18.96L181.48 13.60L183.67 13.60L185.36 19.01L187.13 13.60L189.39 13.60L186.67 22L184.13 22L182.52 16.89L180.84 22L178.30 22ZM196.24 22L193.91 22L193.91 13.60L195.86 13.60L199.57 18.07L199.57 13.60L201.90 13.60L201.90 22L199.95 22L196.24 17.52L196.24 22ZM213.81 22L207.06 22L207.06 13.60L213.65 13.60L213.65 15.44L209.42 15.44L209.42 16.85L213.15 16.85L213.15 18.63L209.42 18.63L209.42 20.17L213.81 20.17L213.81 22ZM220.99 22L218.61 22L218.61 13.60L222.45 13.60Q223.60 13.60 224.43 13.98Q225.27 14.35 225.73 15.06Q226.19 15.76 226.19 16.71L226.19 16.71Q226.19 17.62 225.76 18.30Q225.33 18.98 224.54 19.36L224.54 19.36L226.35 22L223.81 22L222.28 19.77L220.99 19.77L220.99 22ZM220.99 15.47L220.99 17.93L222.31 17.93Q223.04 17.93 223.41 17.61Q223.78 17.29 223.78 16.71L223.78 16.71Q223.78 16.12 223.41 15.79Q223.04 15.47 222.31 15.47L222.31 15.47L220.99 15.47ZM233.35 22L230.97 22L230.97 13.60L233.35 13.60L233.35 22ZM245.27 22L238.53 22L238.53 13.60L245.12 13.60L245.12 15.44L240.88 15.44L240.88 16.85L244.61 16.85L244.61 18.63L240.88 18.63L240.88 20.17L245.27 20.17L245.27 22ZM249.56 20.75L249.56 20.75Q249.56 20.15 249.95 19.78Q250.34 19.41 250.93 19.41L250.93 19.41Q251.53 19.41 251.91 19.78Q252.30 20.15 252.30 20.75L252.30 20.75Q252.30 21.34 251.91 21.72Q251.52 22.11 250.93 22.11L250.93 22.11Q250.35 22.11 249.95 21.72Q249.56 21.34 249.56 20.75ZM258.75 15.48L256.16 15.48L256.16 13.60L263.69 13.60L263.69 15.48L261.12 15.48L261.12 22L258.75 22L258.75 15.48ZM270.41 22L268.06 22L268.06 13.60L270.41 13.60L270.41 17.09L273.66 13.60L276.28 13.60L272.85 17.32L276.46 22L273.70 22L271.30 18.95L270.41 19.90L270.41 22Z" fill="#000000" x="138.25"/></svg>